<?xml version="1.0" standalone="no"?>
<!DOCTYPE svg PUBLIC "-//W3C//DTD SVG 1.1//EN" "http://www.w3.org/Graphics/SVG/1.1/DTD/svg11.dtd">
<svg xmlns="http://www.w3.org/2000/svg">
<metadata>Generated by Fontastic.me</metadata>
<defs>
<font id="micro-icon" horiz-adv-x="512">
<font-face font-family="micro-icon" units-per-em="512" ascent="480" descent="-32"/>
<missing-glyph horiz-adv-x="512" />

<glyph glyph-name="airbnb" unicode="&#97;" d="M256 139c-25 32-40 59-45 83-23 88 113 88 90 0-5-24-20-52-45-83z m138-73c-42-19-84 11-119 50 104 130 46 200-19 200-55 0-85-46-73-100 7-30 25-63 54-100-32-36-60-53-85-55-50-7-89 41-71 91 15 39 111 231 116 242 15 30 25 57 59 57 32 0 43-26 60-60 36-70 90-177 115-239 13-33-1-71-37-86z m47 136c-129 274-136 278-185 278-46 0-65-32-85-73-106-212-116-242-117-245-25-69 27-130 90-130 21 0 60 6 112 62 59-63 101-62 112-62 63 0 115 61 90 130 0 4-17 39-17 40z"/>
<glyph glyph-name="zhihu" unicode="&#98;" d="M136 342l0-174 19 0 6-21 34 21 40 0 0 174z m79-155l-23 0-22-14-4 14-10 0 0 136 59 0z m-95 76l-42 0c1 21 2 41 2 58l41 0c0 0 1 18-7 18l-71 0c3 11 6 22 11 33 0 0-20 0-26-17-3-8-11-35-25-63 5 1 20 1 30 18 1 5 2 5 4 11l23 0c0-8-1-53-2-58l-41 0c-10 0-13-19-13-19l53 0c-4-40-23-74-57-100 16-5 33 0 41 8 0 0 18 16 28 55l43-52c0 0 7 22-1 32-6 7-22 27-29 34l-12-10c4 11 6 22 7 33l49 0c0 0 0 19-6 19z m329 1c17 20 36 47 36 47 0 0-14 12-21 3-5-6-30-39-30-39z m-120 47c-7 7-20-1-20-1 0 0 31-45 33-46l15 11c0 0-20 30-28 36l0 0z m183-57c-16 0-105-1-105-1l0 81c4 0 10 0 18 1 33 2 57 3 71 4 0 0 9 22-1 27-2 1-18-4-18-4 0 0-133-13-186-14 1-7 6-14 12-16 11-3 19-1 40-1 20 2 35 2 45 2l0-80-107 0c0 0 2-17 21-18l86 0 0-57c0-11-9-17-20-17-11 0-21 1-33 2 2-3 5-12 15-18 8-3 13-5 21-5 24 0 37 14 36 36l0 59 98 0c8 0 7 19 7 19z"/>
<glyph glyph-name="amazon" unicode="&#99;" d="M289 349c-48-2-169-15-169-117 0-110 138-114 183-43 7-11 36-38 46-47l56 56c0 0-32 25-32 53l0 147c0 25-24 82-112 82-88 0-135-55-135-104l74-7c16 49 54 49 54 49 40 0 35-29 35-69z m0-87c0-80-84-68-84-17 0 47 51 57 84 58z m136-163c-7-10-70-67-174-67-105 0-185 71-209 101-7 8 1 11 5 8 74-44 188-118 373-30 7 4 13-2 5-12z m40-2c-6-16-16-27-21-31-6-5-10-3-7 4 3 6 20 46 13 55-6 8-37 4-48 3-11-1-13-2-14 0-2 6 22 16 38 18 15 1 41 0 46-6 3-5 0-27-7-43z"/>
<glyph glyph-name="android" unicode="&#100;" d="M374 215c-12 0-22 10-22 22 0 11 10 21 22 21 12 0 21-10 21-21 0-12-9-22-21-22m-236 0c-12 0-21 10-21 22 0 11 9 21 21 21 12 0 22-10 22-21 0-12-10-22-22-22m243 129l43 73c2 3 2 7 1 10-2 3-5 4-8 4-4 0-7-2-8-5l-43-74c-70 31-150 31-220 0l-43 74c-1 3-4 5-8 5-3 0-6-1-7-4-2-3-2-7 0-10l43-73c-74-40-124-114-131-202l512 0c-7 88-57 162-131 202"/>
<glyph glyph-name="app-store" unicode="&#101;" d="M256 391l9 16c6 10 18 13 28 7 10-5 13-18 7-28l-87-151 63 0c21 0 32-24 23-41l-185 0c-11 0-21 9-21 20 0 12 10 21 21 21l52 0 66 115-20 36c-6 10-3 23 7 28 10 6 22 3 28-7z m-79-218l-19-34c-6-10-18-13-28-7-10 5-13 18-8 27l15 26c16 5 30 1 40-12z m169 62l53 0c12 0 21-9 21-21 0-11-9-20-21-20l-29 0 20-35c5-9 2-22-8-27-10-6-22-3-28 7-33 58-58 102-75 131-17 29-5 59 7 69 13-23 33-58 60-104z m-90 269c-137 0-248-111-248-248 0-137 111-248 248-248 137 0 248 111 248 248 0 137-111 248-248 248z m216-248c0-119-96-216-216-216-119 0-216 96-216 216 0 119 96 216 216 216 119 0 216-96 216-216z"/>
<glyph glyph-name="atlassian" unicode="&#102;" d="M152 276c-7 8-19 7-25-3l-125-251c-5-10 2-22 13-22l175 0c6 0 11 3 13 8 38 78 16 197-51 268z m92 228c-122-194-8-349 65-496 3-5 8-8 14-8l174 0c11 0 18 12 13 22 0 0-234 470-240 482-5 11-19 11-26 0z"/>
<glyph glyph-name="blogger-b" unicode="&#103;" d="M479 289c-2 8-7 16-13 19-2 1-13 2-25 2-20 1-22 2-29 5-10 6-12 13-12 30-1 33-14 64-41 91-20 20-41 33-66 41-6 2-19 2-63 3-70 0-85-1-109-10-43-18-74-54-86-101-2-9-2-23-3-104 0-101 0-116 7-136 15-50 60-87 104-95 15-2 197-3 216 0 33 4 58 17 82 41 17 18 28 37 35 63 5 17 5 142 3 151z m-322 64c7 8 10 8 58 8 44 0 46 0 52-3 9-5 14-12 14-22 0-10-4-16-13-22-4-3-7-3-50-3-27 0-48 0-51 1-16 5-23 29-10 41z m191-200l-15-2-77-1c-68-1-87 0-91 2-7 3-14 11-15 19-1 7 3 17 8 23 7 6 11 6 98 6 89 0 89 0 97-8 12-11 10-31-5-39z"/>
<glyph glyph-name="blogger" unicode="&#104;" d="M194 316c5 5 7 5 37 5 27 0 28 0 32-2 6-3 8-7 8-14 0-6-2-10-7-13-3-2-5-2-31-2-17 0-30 0-32 1-10 3-14 17-7 25z m62-95c-54 0-56 0-60-4-4-3-6-9-5-14 0-4 4-10 9-12 2-1 14-1 56-1l48 1 9 1c9 5 11 18 3 25-5 4-5 4-60 4z m223-130c-3-28-23-50-51-57-7-2-10-2-173-2-158 0-166 0-172 2-8 2-15 5-22 10-6 4-14 12-17 16-4 6-8 16-10 22-2 7-2 10-2 174 0 163 0 166 2 173 6 25 26 44 51 50 7 1 332 1 340 0 21-4 38-17 48-37 7-15 7 2 7-180 0-116 0-165-1-171z m-85 186c-1 5-4 9-8 11-1 1-8 1-15 2-13 0-14 1-18 3-6 3-8 7-8 18 0 21-9 40-25 57-12 12-26 20-41 25-4 1-12 1-39 2-43 0-53-1-67-7-27-10-47-33-54-62-1-5-1-14-2-64 0-63 0-72 4-85 10-31 37-53 65-58 9-2 122-2 134-1 20 3 36 11 50 26 11 11 18 23 22 39 3 11 3 88 2 94z"/>
<glyph glyph-name="codepen" unicode="&#105;" d="M502 352l-234 156c-8 5-16 5-24 0l-234-156c-6-4-10-11-10-18l0-156c0-7 4-14 10-18l234-156c8-5 16-5 24 0l234 156c6 4 10 11 10 18l0 156c0 7-4 14-10 18z m-224 97l172-115-77-51-95 63z m-44 0l0-103-95-63-77 51z m-190-156l55-37-55-37z m190-230l-172 115 77 51 95-63z m22 141l-78 52 78 52 78-52z m22-141l0 103 95 63 77-51z m190 156l-55 37 55 37z"/>
<glyph glyph-name="dailymotion" unicode="&#106;" d="M331 245c-7 4-16 6-24 6-14 0-25-4-34-13-9-9-13-20-13-33 0-15 4-26 13-35 9-9 20-14 33-14 14 0 25 5 34 14 9 9 14 21 14 35 0 8-2 16-6 23-4 7-10 13-17 17z m-299 235l0-448 448 0 0 448z m375-373l-53 0 0 24-1 0c-11-18-29-27-56-27-18 0-35 5-49 14-14 8-25 21-33 35-7 15-11 32-11 51 0 19 4 35 12 50 7 15 18 28 32 36 15 9 30 13 48 13 10 0 20-1 30-5 9-3 17-9 25-17l0 78 56 12z"/>
<glyph glyph-name="digg" unicode="&#107;" d="M82 340l-82 0 0-175 133 0 0 251-51 0z m0-134l-31 0 0 93 31 0z m297 134l0-175 82 0 0-28-82 0 0-41 133 0 0 244z m82-134l-31 0 0 93 31 0z m-236-41l82 0 0-28-82 0 0-41 133 0 0 244-133 0z m51 134l31 0 0-93-31 0z m-123 117l52 0 0-51-52 0z m0-76l52 0 0-175-52 0z"/>
<glyph glyph-name="discord" unicode="&#108;" d="M329 269c0-16-11-29-26-29-14 0-26 13-26 29 0 15 12 28 26 28 15 0 26-13 26-28z m-119 28c-15 0-26-13-26-28 0-16 11-29 26-29 14 0 26 13 26 29 0 15-12 28-26 28z m270 162l0-459c-64 57-44 38-119 108l14-48-291 0c-28 0-52 24-52 53l0 346c0 29 24 53 52 53l344 0c28 0 52-24 52-53z m-73-242c0 82-37 149-37 149-37 27-72 27-72 27l-3-4c43-14 63-33 63-33-60 33-132 33-191 8-9-5-15-8-15-8 0 0 21 20 67 34l-2 3c0 0-35 0-72-27 0 0-37-67-37-149 0 0 22-38 78-39 0 0 10 11 17 21-32 10-45 30-45 30 4-3 10-6 11-6 43-24 105-32 160-9 9 3 19 8 29 15 0 0-13-21-46-31 7-9 17-20 17-20 56 1 78 39 78 39z"/>
<glyph glyph-name="docker" unicode="&#109;" d="M280 272l-53 0 0 47 53 0z m0 163l-53 0 0-48 53 0z m62-116l-52 0 0-47 52 0z m-125 58l-52 0 0-48 52 0z m63 0l-53 0 0-48 53 0z m221-80c-11 8-38 11-58 7-3 19-13 36-33 51l-11 7-8-11c-14-22-18-59-3-83-7-4-20-9-38-9l-348 0c-7-40 5-93 35-129 30-35 74-53 132-53 126 0 220 58 263 163 17 0 54 0 73 36 1 2 5 11 7 14z m-409 22l-52 0 0-47 53 0 0 47z m63 0l-53 0 0-47 53 0z m62 0l-52 0 0-47 52 0z m-62 58l-53 0 0-48 53 0z"/>
<glyph glyph-name="dribbble" unicode="&#110;" d="M256 504c-137 0-248-111-248-248 0-137 111-248 248-248 137 0 248 111 248 248 0 137-111 248-248 248z m164-114c29-36 47-82 48-132-7 1-77 15-148 6-5 15-11 27-18 42 78 32 114 78 118 84z m-24 24c-3-5-35-48-111-76-34 63-73 116-79 124 68 16 138-2 190-48z m-230 33c6-7 43-60 78-122-99-26-186-26-195-26 13 66 58 120 117 148z m-122-191c0 2 0 4 0 6 10 0 112-1 218 30 6-12 12-24 17-36-76-21-146-83-180-142-34 38-55 87-55 142z m82-167c22 45 82 103 168 132 29-77 42-142 45-160-68-29-150-21-213 28z m248-9c-2 13-13 75-41 151 67 11 125-7 132-9-9-59-43-110-91-142z"/>
<glyph glyph-name="github" unicode="&#111;" d="M174 115c0-2-2-4-5-4-4 0-6 1-6 4 0 2 2 3 5 3 3 0 6-1 6-3z m-31 4c-1-2 1-4 4-5 3-1 6 0 6 2 1 2-1 4-4 5-3 1-5 0-6-2z m44 2c-3-1-5-3-5-5 1-2 3-3 6-3 3 1 5 3 5 5 0 2-3 3-6 3z m66 383c-139 0-245-105-245-244 0-111 70-206 170-239 12-3 17 5 17 12 0 6 0 40 0 61 0 0-70-15-85 30 0 0-12 29-28 37 0 0-23 15 2 15 0 0 25-2 38-26 22-38 59-27 73-21 2 16 9 27 16 34-56 6-112 14-112 111 0 27 7 41 23 58-2 7-11 34 3 68 21 7 69-27 69-27 20 6 42 9 63 9 21 0 43-3 63-9 0 0 48 34 69 27 13-34 5-61 2-68 16-17 26-31 26-58 0-97-59-105-115-111 9-8 17-23 17-46 0-34 0-76 0-84 0-6 5-14 17-12 100 33 168 128 168 239 0 139-112 244-251 244z m-148-345c-1-1-1-3 1-5 2-2 4-2 5-1 1 1 1 3-1 5-1 2-3 2-5 1z m-11 8c0-1 1-3 3-4 1-1 3 0 4 1 1 1 0 3-2 4-2 0-4 0-5-1z m33-35c-2-2-1-5 1-7 2-2 5-2 7-1 1 2 0 5-2 7-2 2-5 2-6 1z m-12 14c-1-1-1-3 0-6 2-2 5-3 6-2 2 1 2 4 0 6-1 3-4 4-6 2z"/>
<glyph glyph-name="git-alt" unicode="&#112;" d="M472 276l-196 196c-11 11-30 11-41 0l-40-41 51-52c27 10 53-16 43-43l50-50c34 12 61-31 36-57-27-26-71 3-56 38l-47 46 0-122c26-12 22-42 9-55-13-13-35-13-48 0-18 18-11 47 11 56l0 123c-21 9-25 31-19 45l-50 51-135-134c-11-11-11-30 0-41l196-196c11-11 30-11 41 0l195 195c11 11 11 30 0 41z"/>
<glyph glyph-name="git" unicode="&#113;" d="M216 354l-79 0c-40 10-130 7-130-75 0-30 15-51 35-61-26-23-37-34-37-49 0-11 4-22 17-27-14-14-22-23-22-42 0-32 28-50 102-50 70 0 111 26 111 73 0 58-45 56-151 63l13 21c27-7 119-10 119 68 0 19-8 32-15 41l37 3z m-63-242c0-32-105-32-105-3 0 8 5 15 11 22 77-5 94-4 94-19z m-51 134c-53 0-50 71 1 71 50 0 51-71-1-71z m133-100l0 32c27 4 28 2 28 11l0 119c0 9-2 8-28 17l5 33 84 0 0-169c0-7 0-7 7-8l20-3 0-32z m53 244c-23 0-37 14-37 37 0 23 14 35 37 35 23 0 37-12 37-35 0-23-14-37-37-37z m224-228c-17-9-43-17-66-17-49 0-67 20-67 66l0 106c0 6 1 4-32 4l0 36c36 5 50 22 55 67l38 0c0-66-1-62 4-62l57 0 0-41-61 0 0-97c0-7-4-51 61-27z"/>
<glyph glyph-name="fort-awesome" unicode="&#114;" d="M489 224l-27 0c-3 0-5-2-5-5l0-32-36 0 0 179c0 2-2 4-5 4l-27 0c-3 0-5-2-5-4l0-32-37 0 0 32c0 2-2 4-4 4l-28 0c-2 0-4-2-4-4l0-32-37 0 0 32c0 6-8 4-11 4l0 38c8 2 17 4 25 4 11 0 21-5 32-5 4 0 27 2 27 8l0 60c0 3-2 5-4 5-5 0-15-4-24-4-10 0-21 4-33 4-8 0-16-1-24-3l0 5c6 3 10 8 10 14 0 21-32 21-32 0 0-6 4-11 9-14l0-112c-3 0-11 2-11-4l0-32-37 0 0 32c0 2-2 4-5 4l-27 0c-3 0-5-2-5-4l0-32-36 0 0 32c0 2-2 4-5 4l-27 0c-3 0-5-2-5-4l0-179-36 0 0 32c0 3-2 5-5 5l-27 0c-3 0-5-2-5-5l0-219 183 0 0 96c0 73 110 73 110 0l0-96 183 0 0 219c0 3-2 5-5 5z m-288 5c0-3-2-5-4-5l-28 0c-2 0-4 2-4 5l0 64c0 2 2 4 4 4l28 0c2 0 4-2 4-4z m147 0c0-3-2-5-5-5l-27 0c-3 0-5 2-5 5l0 64c0 2 2 4 5 4l27 0c3 0 5-2 5-4z"/>
<glyph glyph-name="facebook-square" unicode="&#115;" d="M432 480l-352 0c-27 0-48-21-48-48l0-352c0-27 21-48 48-48l137 0 0 152-63 0 0 72 63 0 0 55c0 62 37 96 94 96 27 0 55-5 55-5l0-61-31 0c-31 0-40-19-40-38l0-47 69 0-11-72-58 0 0-152 137 0c27 0 48 21 48 48l0 352c0 27-21 48-48 48z"/>
<glyph glyph-name="facebook-messenger" unicode="&#116;" d="M257 504c-140 0-249-102-249-241 0-72 30-134 78-178 8-7 7-11 8-58 0-6 4-12 9-16 6-3 13-4 19-1 53 23 54 25 63 22 153-42 319 56 319 231 0 139-107 241-247 241z m149-185l-73-116c-6-8-15-15-25-16-10-2-21 0-29 6l-58 44c-6 4-13 4-18 0l-79-60c-10-8-24 5-17 16l73 116c6 8 15 14 25 16 10 2 21 0 29-6l58-44c6-4 13-4 18 0l79 59c10 8 24-4 17-15z"/>
<glyph glyph-name="facebook-f" unicode="&#117;" d="M375 224l14 93-89 0 0 60c0 25 13 50 53 50l40 0 0 79c0 0-37 6-72 6-73 0-121-44-121-125l0-70-81 0 0-93 81 0 0-224 100 0 0 224z"/>
<glyph glyph-name="facebook" unicode="&#118;" d="M504 256c0 137-111 248-248 248-137 0-248-111-248-248 0-124 91-226 209-245l0 173-63 0 0 72 63 0 0 55c0 62 37 96 94 96 27 0 55-5 55-5l0-61-31 0c-31 0-40-19-40-38l0-47 69 0-11-72-58 0 0-173c118 19 209 121 209 245z"/>
<glyph glyph-name="elementor" unicode="&#120;" d="M458 480l-404 0c-12 0-22-10-22-22l0-404c0-12 10-22 22-22l404 0c12 0 22 10 22 22l0 404c0 12-10 22-22 22m-262-324l-39 0 0 199 39 0z m160 0l-120 0 0 40 120 0z m0 80l-120 0 0 40 120 0z m0 80l-120 0 0 40 120 0z"/>
<glyph glyph-name="ebay" unicode="&#119;" d="M485 309l-44-88-44 88-30 0 9-16c-9 15-29 21-51 21-25 0-54-7-57-35l27 0c1 11 12 17 28 17 21 0 33-7 33-26l0-3c-10 0-23 0-34 0-34-1-55-8-61-27 1 4 1 8 1 12 0 42-32 61-60 61-17 0-35-4-47-19l0 65-26 0 0-136c0-8 0-18-1-27l26 0c0 6 0 11 0 16 11-13 29-20 47-20 30 0 52 18 59 44 0-3-1-5-1-8 0-19 17-36 49-36 21 0 37 5 49 21 0-6 1-11 1-16l24 0c0 6-1 14-1 21l0 52c0 8-1 14-3 20l49-93-23-44 29 0 79 156z m-290-99c-24 0-40 17-40 43 0 26 16 43 40 43 24 0 40-17 40-43 0-26-16-43-40-43z m161 38c0-24-15-39-42-39-20 0-28 11-28 21 0 15 15 19 38 20 11 0 22 0 32 0z m-330-2l103 0 0 7c0 41-26 60-63 60-45 0-66-24-66-62 0-34 20-59 66-59 25 0 54 10 60 37l-27 0c-9-29-70-29-73 17z m76 17l-75 0c5 46 73 44 75 0z"/>
<glyph glyph-name="dropbox" unicode="&#121;" d="M256 391l-128-81 128-82-128-82-128 83 128 81-128 81 128 82z m-128-270l128 81 128-81-128-82z m128 108l128 81-128 82 128 81 128-82-128-81 128-82-128-82z"/>
<glyph glyph-name="dribbble-square" unicode="&#122;" d="M122 284c9 42 38 77 76 95 4-4 28-38 51-79-64-17-121-16-127-16z m225 74c-34 30-80 41-123 31 4-6 29-39 51-80 49 18 69 45 72 49z m-175-210c41-32 93-37 137-18-2 12-10 54-29 104-55-19-94-57-108-86z m99 108c-3 8-7 16-11 23-68-20-135-19-141-19 0-1 0-3 0-4 0-35 14-67 35-92 23 38 68 78 117 92z m35-16c18-49 25-89 26-98 31 21 53 54 59 92-5 2-42 13-85 6z m-20 48c4-10 8-18 12-27 45 6 90-3 95-4-1 32-12 62-31 85-3-4-26-33-76-54z m194 144l0-352c0-27-21-48-48-48l-352 0c-26 0-48 21-48 48l0 352c0 26 22 48 48 48l352 0c27 0 48-22 48-48z m-64-176c0 88-72 160-160 160-88 0-160-72-160-160 0-88 72-160 160-160 88 0 160 72 160 160z"/>
<glyph glyph-name="github-square" unicode="&#65;" d="M432 480l-352 0c-26 0-48-22-48-48l0-352c0-27 22-48 48-48l352 0c27 0 48 21 48 48l0 352c0 26-21 48-48 48z m-123-384c-8-1-11 4-11 8 0 6 0 33 0 56 0 15-5 25-11 30 37 4 76 9 76 73 0 19-7 28-17 39 1 5 7 22-2 45-14 5-46-18-46-18-13 4-27 6-41 6-14 0-29-2-42-6 0 0-32 23-46 18-9-23-3-40-1-45-11-11-16-20-16-39 0-63 37-69 74-73-4-4-9-11-10-22-10-4-34-12-49 14-9 16-25 17-25 17-16 0-1-10-1-10 11-5 18-24 18-24 10-30 56-20 56-20 0-14 1-37 1-41 0-4-3-9-12-8-66 22-112 85-112 159 0 91 70 161 162 161 92 0 166-70 166-161 0-74-45-137-111-159z m-98 61c-2 0-3 1-4 2 0 2 1 3 3 3 2 0 4 0 4-2 1-1-1-2-3-3z m-9 1c0-1-2-2-4-2-2 0-3 1-3 2 0 2 1 3 3 3 2 0 4-1 4-3z m-14 1c0-1-2-2-4-1-2 0-3 2-3 3 1 2 3 2 4 2 2-1 4-2 3-4z m-12 6c-1-1-3-1-5 0-1 2-1 4 0 4 0 2 2 1 4 0 1-1 2-3 1-4z m-9 9c-1-1-3 0-4 1-1 2-1 4 0 4 1 1 3 0 4-1 1-2 1-3 0-4z m-7 10c-1-1-2-1-3 0-1 1-2 3-1 4 1 1 3 0 4-1 1-1 1-3 0-3z m-7 7c0-1-1-1-2 0-2 0-2 1-2 2 1 1 2 1 3 1 1-1 2-2 1-3z"/>
<glyph glyph-name="google-drive" unicode="&#66;" d="M339 197l-164 283 162 0 163-283z m-137-24l-81-141 310 0 81 141z m-48 272l-154-272 81-141 156 271z"/>
<glyph glyph-name="google-play" unicode="&#67;" d="M325 278l-220 221 280-161z m-278 234c-13-7-22-19-22-35l0-442c0-16 9-28 22-35l257 256z m425-226l-59 34-65-64 65-65 60 35c18 14 18 46-1 60z m-367-273l280 161-60 60z"/>
<glyph glyph-name="google-plus" unicode="&#68;" d="M256 504c-137 0-248-111-248-248 0-137 111-248 248-248 137 0 248 111 248 248 0 137-111 248-248 248z m-71-372c-68 0-124 56-124 124 0 68 56 124 124 124 32 0 60-11 83-32l-33-33c-13 13-32 19-50 19-43 0-77-35-77-78 0-43 34-78 77-78 33 0 65 19 70 53l-70 0 0 43 117 0c1-7 2-14 2-21 0-71-47-121-119-121z m231 106l0-35-36 0 0 35-35 0 0 36 35 0 0 35 36 0 0-35 35 0 0-36z"/>
<glyph glyph-name="google-plus-g" unicode="&#69;" d="M309 278c1-8 2-16 2-26 0-87-59-150-147-150-85 0-154 69-154 154 0 85 69 154 154 154 41 0 76-15 103-41l-42-40c-11 11-31 24-61 24-53 0-95-43-95-97 0-54 42-97 95-97 61 0 83 44 87 66l-87 0 0 53z m148-5l0 44-45 0 0-44-44 0 0-45 44 0 0-45 45 0 0 45 45 0 0 45z"/>
<glyph glyph-name="google-plus-square" unicode="&#70;" d="M432 480l-352 0c-26 0-48-22-48-48l0-352c0-27 22-48 48-48l352 0c27 0 48 21 48 48l0 352c0 26-21 48-48 48z m-236-324c-55 0-100 45-100 100 0 55 45 100 100 100 27 0 50-10 67-26l-27-26c-7 7-20 15-40 15-34 0-62-28-62-63 0-35 28-63 62-63 40 0 55 28 57 43l-57 0 0 34 94 0c1-5 2-10 2-16 0-58-38-98-96-98z m220 82l-29 0 0-29-29 0 0 29-29 0 0 29 29 0 0 29 29 0 0-29 29 0z"/>
<glyph glyph-name="imdb" unicode="&#71;" d="M432 480l-352 0c-26 0-48-22-48-48l0-352c0-27 22-48 48-48l352 0c27 0 48 21 48 48l0 352c0 26-21 48-48 48z m-379-197l0 0c0 0 0 0 0 0z m76-91l-33 0 0 128 33 0z m113 0l-28 0 0 87-12-87-21 0-12 85 0-85-29 0 0 128 43 0c3-20 6-40 9-60l7 60 43 0z m12 0l0 128 24 0c18 0 45 2 49-21 2-8 2-16 2-24 0-89 11-83-75-83z m161 29c0-15-3-31-23-31-9 0-15 3-21 10l-1-8-30 0 0 128 31 0 0-42c6 7 12 9 21 9 22 0 23-12 23-30z m-118 61c0 10 2 16-10 16l0-84c12 0 10 9 10 19z m86-26c0 5 1 13-7 13-6 0-5-9-5-13 0-1-1-40 2-45 0-1 2-2 3-2 8 0 7 9 7 14z"/>
<glyph glyph-name="hubspot" unicode="&#72;" d="M267 300c-25-23-40-57-40-94 0-30 9-57 26-78l-50-50c-4 2-9 2-14 2-11 0-21-4-28-11-8-8-12-18-12-29 0-11 4-21 12-28 7-8 17-12 28-12 11 0 21 4 29 12 7 7 12 17 12 28 0 4-1 8-2 12l50 50c22-17 49-27 79-27 72 0 130 59 130 131 0 65-48 119-110 128l0 62c17 7 28 24 28 43 0 26-21 48-47 48-26 0-47-22-47-48 0-19 11-36 28-43l0-61c-15-2-29-7-42-14-28 21-118 86-169 125 1 4 2 9 2 14 0 29-24 52-53 52-28 0-52-23-52-52 0-29 24-53 52-53 10 0 19 3 27 8z m90-163c-38 0-69 31-69 69 0 38 31 69 69 69 38 0 69-31 69-69 0-38-31-69-69-69z"/>
<glyph glyph-name="instagram" unicode="&#73;" d="M256 371c-63 0-115-51-115-115 0-64 52-115 115-115 64 0 115 51 115 115 0 64-51 115-115 115z m0-190c-41 0-75 34-75 75 0 41 34 75 75 75 41 0 75-34 75-75 0-41-34-75-75-75z m147 195c0-15-12-27-27-27-15 0-27 12-27 27 0 14 12 26 27 26 15 0 27-12 27-26z m76-28c-2 36-10 68-37 94-26 27-58 35-93 37-37 2-148 2-185 0-36-2-68-10-94-37-27-26-35-58-36-93-3-37-3-148 0-185 1-36 9-68 36-94 26-26 58-35 94-36 37-3 148-3 185 0 35 1 67 9 93 36 27 26 35 58 37 94 2 37 2 147 0 184z m-48-224c-8-20-23-35-43-43-29-11-99-9-132-9-32 0-103-2-132 9-20 8-35 23-43 43-11 29-9 99-9 132 0 33-2 103 9 132 8 20 23 35 43 43 30 11 100 9 132 9 33 0 103 2 132-9 20-8 35-23 43-43 12-29 9-99 9-132 0-33 3-103-9-132z"/>
<glyph glyph-name="instagram-square" unicode="&#74;" d="M256 309c-29 0-53-24-53-53 0-29 24-53 53-53 29 0 53 24 53 53 0 29-24 53-53 53z m125 41c-6 14-17 25-31 31-21 8-71 6-94 6-23 0-73 2-94-6-14-6-25-17-31-31-8-21-6-71-6-94 0-23-2-73 6-94 6-14 17-25 31-31 21-8 71-6 94-6 23 0 73-2 94 6 14 6 25 17 31 31 8 21 6 71 6 94 0 23 2 73-6 94z m-125-176c-45 0-82 37-82 82 0 45 37 82 82 82 45 0 82-37 82-82 0-22-9-43-24-58-15-15-36-24-58-24z m85 148c-10 0-19 9-19 19 0 11 9 20 19 20 11 0 20-9 20-20 0-5-2-10-6-13-4-4-9-6-14-6z m91 158l-352 0c-27 0-48-21-48-48l0-352c0-27 21-48 48-48l352 0c27 0 48 21 48 48l0 352c0 27-21 48-48 48z m-17-290c-1-26-7-48-26-67-19-19-41-25-67-26-26-1-106-1-132 0-26 1-48 7-67 26-19 19-25 41-26 67-1 26-1 106 0 132 1 26 7 48 26 67 19 19 42 25 67 26 26 1 106 1 132 0 26-2 48-7 67-26 19-19 25-41 26-67 1-26 1-106 0-132z"/>
<glyph glyph-name="invision" unicode="&#75;" d="M439 480l-366 0c-23 0-41-18-41-41l0-366c0-23 18-41 41-41l366 0c23 0 41 18 41 41l0 366c0 23-18 41-41 41z m-231-114c1-23-22-27-26-27-15 0-28 12-28 27 1 35 54 35 54 0z m157-231c-66 0-34 74-25 107 14 46-45 59-60-1l-26-103-45 0 8 32c-31-52-94-44-94 4 0 15 0 14 23 104l-32 0 9 36 77 0c-34-134-33-127-33-138 0-21 41-14 57 23l20 79-32 0 10 36 68 0-9-40c41 75 128 47 102-38-14-52-14-51-15-59 0-16 18-23 32 17l18-7c-10-37-29-52-53-52z"/>
<glyph glyph-name="itunes" unicode="&#76;" d="M256 432c-95 0-171-77-171-172 0-94 76-171 171-171 94 0 171 77 171 171 0 95-77 172-171 172z m79-240c-3-14-13-22-27-24-12-2-22-3-32 5-12 10-12 26-2 37 9 8 21 9 38 12 3 1 6 2 8 4 3 4 2 2 2 81 0 6-2 7-8 6-4-1-92-17-92-17-5-1-7-3-7-8 0-116 1-111-1-119-2-9-7-16-15-19-8-5-23-7-31-6-22 4-29 29-15 43 9 8 21 10 38 13 3 1 6 1 8 4 5 5 1 127 3 133 0 3 1 5 3 7 2 2 6 3 7 3 101 19 113 21 115 21 6 0 9-3 9-9 0-170 0-161-1-167z m42 288l-242 0c-57 0-103-46-103-103l0-242c0-57 46-103 103-103l242 0c57 0 103 46 103 103l0 242c0 57-46 103-103 103z m-121-412c-107 0-193 86-193 192 0 107 86 193 193 193 106 0 192-86 192-193 0-106-86-192-192-192z"/>
<glyph glyph-name="jira" unicode="&#77;" d="M498 270c-73 73-169 170-241 242-166-165-243-242-243-242-8-8-8-20 0-28 133-133 62-62 243-242 379 378 15 17 241 242 8 8 8 20 0 28z m-241-90l-76 76 76 76 76-76z"/>
<glyph glyph-name="reddit-alien" unicode="&#78;" d="M440 308c-15 0-28-6-38-15-35 24-83 40-137 42l28 125 88-20c0-22 18-39 39-39 22 0 40 18 40 39 0 22-17 40-40 40-15 0-28-9-35-22l-97 22c-5 1-10-3-11-7l-31-138c-53-2-100-18-136-43-10 10-23 16-38 16-56 0-74-74-23-100-2-8-3-16-3-24 0-84 95-152 210-152 117 0 211 68 211 152 0 8-1 17-3 25 50 25 32 99-24 99z m-311-105c0 22 18 40 40 40 22 0 39-18 39-40 0-22-17-39-39-39-22 0-40 17-40 39z m215-93c-37-37-139-37-176 0-4 3-4 9 0 13 4 4 10 4 13 0 28-28 120-29 149 0 4 4 10 4 14 0 4-4 4-10 0-13z m-1 54c-22 0-39 17-39 39 0 22 17 40 39 40 22 0 40-18 40-40 0-22-18-39-40-39z"/>
<glyph glyph-name="reddit" unicode="&#79;" d="M202 206c-14 0-25 12-25 25 0 14 11 25 25 25 13 0 24-11 24-25 0-14-11-25-24-25z m302 50c0-137-111-248-248-248-137 0-248 111-248 248 0 137 111 248 248 248 137 0 248-111 248-248z m-132 41c-10 0-18-4-24-10-22 16-53 26-86 27l17 78 56-12c0-14 11-25 24-25 14 0 25 11 25 25 0 13-11 25-25 25-9 0-18-6-22-14l-61 14c-3 0-6-2-7-5l-19-86c-33-2-63-12-86-27-6 6-14 10-24 10-35 0-46-47-14-63-1-5-2-10-2-15 0-53 59-95 132-95 73 0 133 42 133 95 0 5-1 11-2 16 31 16 19 62-15 62z m-69-116c-18-18-76-18-94 0-2 2-6 2-8 0-3-3-3-6 0-9 23-22 87-22 110 0 3 3 3 6 0 9-2 2-6 2-8 0z m8 75c-14 0-25-11-25-25 0-14 11-25 25-25 13 0 24 12 24 25 0 14-11 25-24 25z"/>
<glyph glyph-name="react" unicode="&#80;" d="M418 335c-5 2-11 3-16 5 1 4 2 7 3 11 12 60 4 107-24 123-26 15-69 0-112-38-4-4-9-8-13-12-2 3-5 6-8 8-45 40-91 57-118 42-27-16-34-61-23-117 1-6 2-11 3-17-6-2-12-4-18-6-54-18-92-47-92-78 0-31 41-62 96-81 5-2 9-3 14-4-2-6-3-12-4-18-11-56-2-100 24-115 27-16 72 0 116 39 4 3 7 6 11 10 4-5 9-9 14-13 42-36 85-51 111-36 27 15 36 63 24 120-1 5-2 9-3 14 3 1 6 2 10 3 57 19 99 50 99 81 0 31-39 60-94 79z m-135 85c37 32 72 45 88 36 17-10 23-49 12-101 0-3-1-6-2-10-22 5-45 9-67 11-13 18-27 36-43 53 4 4 8 7 12 11z m-116-216c5-8 11-17 16-25-16 1-31 4-46 7 4 14 10 29 16 45 5-9 9-18 14-27z m-30 121c14 3 30 6 46 8-6-9-11-17-16-26-5-8-10-17-14-26-6 15-12 30-16 44z m27-69c7 14 14 27 22 40 7 14 16 27 24 39 15 1 30 2 46 2 16 0 31-1 46-2 8-12 17-25 24-38 8-14 15-27 22-41-7-14-14-27-22-41-7-13-15-26-24-39-15-1-30-1-46-1-16 0-31 0-46 1-8 13-16 26-24 39-8 14-15 27-22 41z m181-51c5 8 10 17 15 26 6-14 12-29 16-44-15-3-31-6-47-8 6 8 11 17 16 26z m14 76c-4 9-9 18-14 26-5 9-10 17-15 26 16-2 31-5 45-8-4-15-10-30-16-44z m-103 113c11-12 21-24 30-36-20 1-40 1-60 0 10 13 20 25 30 36z m-116 61c17 10 54-4 94-39 2-2 5-5 7-7-15-17-30-35-43-53-22-2-45-6-67-11-1 6-2 11-3 16-10 48-4 85 12 94z m-24-264c-4 2-9 3-13 4-21 7-45 18-63 31-10 7-17 18-18 30 0 19 31 42 77 58 5 2 11 4 17 5 7-21 15-43 25-63-10-21-18-43-25-65z m116-98c-16-15-35-27-56-35-11-5-24-6-35-1-16 9-23 44-14 92 1 5 2 11 4 16 22-4 45-8 68-9 13-19 27-37 43-54-3-3-6-6-10-9z m25 25c-10 11-21 23-30 36 9 0 19-1 29-1 10 0 20 1 30 1-9-13-19-25-29-36z m131-30c-1-13-7-24-17-32-16-9-50 3-86 35-5 3-9 7-13 11 15 17 29 35 42 54 23 2 46 5 68 10 1-4 2-8 3-12 5-22 6-44 3-66z m18 107c-3-1-6-2-9-2-7 21-15 43-25 63 9 21 17 42 24 63 5-1 10-3 15-4 47-16 80-40 80-58 0-20-35-45-85-62z m-150 15c25 0 46 21 46 46 0 25-21 46-46 46-25 0-46-21-46-46 0-25 21-46 46-46z"/>
<glyph glyph-name="quora" unicode="&#81;" d="M473 125l-30 0c-1-13-10-31-33-31-20 0-35 15-49 36 44 34 74 88 74 153 1 118-96 197-198 197-100 0-198-80-198-197 0-134 132-221 249-189 20-33 46-62 96-62 81 0 90 75 89 93z m-144 58c-19 29-44 52-91 52-31 0-55-10-69-23l12-24c6 3 13 4 20 4 35 0 53-31 69-61-10-3-21-5-33-5-75 0-107 53-107 157 0 104 32 158 107 158 76 0 109-54 109-158 0-42-6-75-17-100z"/>
<glyph glyph-name="pinterest-square" unicode="&#82;" d="M480 432l0-352c0-27-21-48-48-48l-246 0c10 16 23 40 28 59 3 12 15 59 15 59 8-16 32-29 56-29 75 0 128 69 128 153 0 81-66 142-152 142-106 0-162-71-162-149 0-36 19-80 50-95 5-2 7-1 8 4 1 3 5 20 7 27 1 3 0 5-2 7-10 13-18 35-18 56 0 55 41 107 111 107 60 0 103-41 103-100 0-66-34-112-78-112-24 0-42 20-36 44 7 29 20 61 20 82 0 53-75 46-75-25 0-22 7-37 7-37-31-132-36-134-30-192l3-1-89 0c-26 0-48 21-48 48l0 352c0 26 22 48 48 48l352 0c27 0 48-22 48-48z"/>
<glyph glyph-name="pinterest-p" unicode="&#83;" d="M268 505c-103 0-204-68-204-179 0-70 40-110 64-110 10 0 15 28 15 35 0 10-23 29-23 68 0 81 61 138 140 138 68 0 118-39 118-110 0-53-21-153-90-153-25 0-46 18-46 44 0 38 26 74 26 113 0 66-94 54-94-26 0-16 3-35 10-50-14-60-42-148-42-209 0-19 3-38 5-57 3-4 1-3 6-1 51 69 49 82 72 173 12-24 44-36 69-36 106 0 154 103 154 196 0 100-86 164-180 164z"/>
<glyph glyph-name="pinterest" unicode="&#84;" d="M504 256c0-137-111-248-248-248-26 0-50 4-73 11 10 17 25 44 30 65 3 12 16 59 16 59 8-15 32-28 57-28 74 0 128 68 128 154 0 82-67 143-153 143-107 0-163-72-163-150 0-36 19-82 50-96 5-2 7-1 8 3 1 4 5 20 7 28 1 3 0 5-2 7-10 13-18 36-18 57 0 55 41 108 112 108 61 0 104-42 104-101 0-67-34-114-78-114-25 0-43 20-37 45 7 29 20 61 20 82 0 19-10 35-31 35-25 0-45-25-45-60 0-22 8-37 8-37 0 0-25-103-29-123-5-21-3-51-1-71-93 36-158 126-158 231 0 137 111 248 248 248 137 0 248-111 248-248z"/>
<glyph glyph-name="paypal" unicode="&#85;" d="M175 216c-3-19-17-109-21-134 0-2-1-2-3-2l-75 0c-7 0-13 6-12 13l59 372c1 10 10 17 20 17 152 0 165 4 204-11 60-23 65-80 44-140-22-63-73-90-140-91-44 0-70 7-76-24z m246 144c-2 1-2 2-3-1-2-12-5-23-9-34-40-114-150-104-204-104-6 0-10-3-11-9-23-141-27-170-27-170-1-7 3-13 10-13l64 0c9 0 16 6 17 15 1 5-1-6 15 91 4 22 14 20 29 20 71 0 126 29 143 112 6 35 5 72-24 93z"/>
<glyph glyph-name="microsoft" unicode="&#86;" d="M32 480l215 0 0-215-215 0z m233 0l215 0 0-215-215 0z m-233-233l215 0 0-215-215 0z m233 0l215 0 0-215-215 0z"/>
<glyph glyph-name="meetup" unicode="&#87;" d="M99 98c1-6-2-11-8-13-5-1-11 3-12 8-1 6 2 11 8 13 5 1 11-3 12-8z m143-72c-6-4-8-13-4-20 5-6 14-8 20-3 7 4 8 13 4 20-4 6-13 8-20 3z m-86 463c6 1 10 7 9 14-1 6-7 10-14 9-6-2-10-8-9-14 2-7 8-11 14-9z m-122-203c-10 7-23 4-30-6-7-10-5-24 6-31 10-7 23-5 30 5 7 11 4 25-6 32z m272 171c11 6 14 20 8 30-6 10-20 14-30 8-10-7-14-20-7-31 6-10 19-14 29-7z m-191-58c8 5 10 16 5 23-5 8-16 10-23 5-8-6-10-16-5-24 5-8 16-10 23-4z m373-156c-8-2-13-10-11-17 1-8 9-13 16-11 8 1 13 9 11 17-2 7-9 12-16 11z m39 56c-1 6-6 9-12 8-5-1-9-7-8-12 1-6 7-9 13-8 5 1 9 7 7 12z m-80 74c-9-6-11-18-5-26 6-9 18-11 26-5 8 6 10 18 5 26-6 9-18 11-26 5z m-6-139c26-43 15-100-27-129-17-13-37-18-56-18-12-47-70-64-106-32-1-1-2-2-3-3-39-27-93-17-120 22-9 15-14 31-15 47-65 11-90 94-41 140-28 47 1 107 54 115 25 66 107 97 163 54 68 22 136-29 131-101 41-13 53-67 20-95z m-70-75c-3 21-41 5-43 27-3 32 43 102 40 128-4 24-20 30-34 30-13 0-17-2-21-5-3-1-7-5-12 1-6 6-11 11-19 12-13 2-18-2-27-9-3-3-12-13-20-9-3 1-15 7-24 11-16 7-40-5-48-20-13-23-38-113-42-125-9-27 11-49 37-47 11 0 18 4 25 17 4 8 42 108 45 113 2 3 9 8 14 5 6-3 7-9 6-15-1-10-28-71-29-78-3-23 27-26 39-4 4 7 46 93 49 98 5 7 8 9 12 8 3 0 8 0 7-10-1-10-35-73-39-88-4-21 7-42 25-51 12-5 63-15 59 11z m5-92c-10-7-12-22-5-33 7-10 21-13 32-6 10 8 13 22 6 33-8 11-22 14-33 6z"/>
<glyph glyph-name="linkedin-in" unicode="&#88;" d="M132 64l-93 0 0 299 93 0z m-46 340c-30 0-54 24-54 54 0 30 24 54 54 54 29 0 54-24 54-54 0-30-25-54-54-54z m394-340l-93 0 0 146c0 34 0 79-48 79-48 0-56-38-56-77l0-148-93 0 0 299 90 0 0-41 1 0c12 24 43 49 88 49 94 0 111-62 111-143l0-164z"/>
<glyph glyph-name="jsfiddle" unicode="&#89;" d="M454 272c-4 3-5 6-6 10-2 15-3 30-8 44-32 89-137 127-219 81-25-13-44-32-58-57-3 2-5 3-7 4-27 11-53 9-76-9-23-16-33-39-29-67 0-3-2-7-4-9-36-27-50-69-38-111 13-40 52-71 94-72 27-1 54-1 81-1 75 0 150 0 224 1 47 0 86 33 96 77 11 43-9 87-50 109z m19-139c-17-20-38-31-64-32-50 0-101 0-151 0 0 0-145 0-146 0-39 0-68 18-85 53-16 37-3 81 31 104 8 5 11 10 9 20-5 24 4 43 23 56 21 14 42 14 64 3 9-5 13-10 20 2 13 24 31 42 54 55 87 48 203-7 205-118 0-8 2-11 8-15 52-23 67-85 32-128z m-78 72c-6-28-31-49-60-49-15 0-28 5-39 15-24 23-63 67-85 83-18 14-37 11-54-3-44-39 14-108 60-69 4 4 7 9 11 12 8 5 19 1 12-10-15-23-44-34-70-26-26 8-44 32-43 63 1 20 11 38 31 49 20 12 41 12 60-2 45-34 67-72 95-90 22-13 48-6 61 16 26 44-31 93-70 56-3-3-6-8-10-10-10-6-15 3-11 9 18 25 44 36 74 25 28-10 43-39 38-69z"/>
<glyph glyph-name="js-square" unicode="&#90;" d="M432 480l-352 0c-26 0-48-22-48-48l0-352c0-27 22-48 48-48l352 0c27 0 48 21 48 48l0 352c0 26-21 48-48 48z m-156-349c0-44-26-64-63-64-34 0-53 17-63 39l34 20c7-11 13-21 27-21 14 0 23 5 23 26l0 143 42 0z m99-64c-39 0-64 19-76 43l34 20c9-15 21-26 42-26 17 0 28 9 28 21 0 14-11 20-31 28l-10 5c-30 12-51 29-51 63 0 32 25 56 62 56 27 0 46-10 60-34l-33-21c-7 13-15 18-27 18-12 0-20-8-20-18 0-13 8-18 26-26l10-4c36-15 56-31 56-66 0-38-30-59-70-59z"/>
<glyph glyph-name="reddit-square" unicode="&#48;" d="M315 166c3-2 3-6 0-9-24-24-94-24-118 0-3 3-3 7 0 9 2 3 6 3 9 0 18-19 81-19 100 0 3 3 7 3 9 0z m-91 54c0 15-12 27-27 27-14 0-26-12-26-27 0-14 12-26 26-26 15 0 27 12 27 26z m91 27c-15 0-27-12-27-27 0-14 12-26 27-26 15 0 26 12 26 26 0 15-11 27-26 27z m165 185l0-352c0-27-21-48-48-48l-352 0c-26 0-48 21-48 48l0 352c0 26 22 48 48 48l352 0c27 0 48-22 48-48z m-100-141c-10 0-19-4-25-10-24 16-57 27-93 28l19 84 59-13c0-15 12-26 27-26 15 0 27 12 27 26 0 15-12 27-27 27-10 0-19-6-24-15l-66 15c-3 1-6-2-7-5l-20-93c-36-1-68-12-92-29-7 7-16 11-26 11-38 0-50-50-16-67-1-6-2-11-2-17 0-56 64-102 142-102 79 0 143 46 143 102 0 6-1 12-3 17 34 17 22 67-16 67z"/>
<glyph glyph-name="rocketchat" unicode="&#49;" d="M252 284c-16 0-30-14-30-31 0-16 14-30 31-30 16 0 30 14 30 30 0 17-14 31-31 31z m-98 0c-16 0-30-14-30-31 0-16 14-30 31-30 16 0 30 14 30 30 0 17-14 31-31 31z m197 0c-17 0-31-14-30-31 0-16 13-30 30-30 17 0 30 14 30 30 0 17-14 31-30 31z m136 49c-13 21-33 40-57 56-47 31-109 48-174 48-21 0-43-1-64-5-13 12-28 23-44 32-59 30-112 19-138 9-4-1-7-4-8-9-1-4 0-8 3-11 19-20 49-58 42-92-30-30-46-67-46-105 0-38 16-75 46-105 7-34-23-72-42-92-3-3-4-7-3-11 1-5 4-8 8-9 26-10 79-21 138 9 16 9 31 19 44 32 21-4 43-5 64-5 65 0 127 17 174 48 24 16 44 35 57 56 16 24 24 50 24 77 0 27-8 53-24 77z m-234-214c-27 0-53 4-79 10l-18-17c-10-9-21-18-33-24-15-8-31-12-47-14 1 2 2 4 3 5 18 33 23 63 14 89-29 23-47 53-47 85 0 74 93 134 207 134 115 0 207-60 207-134 0-74-92-134-207-134z"/>
<glyph glyph-name="salesforce" unicode="&#50;" d="M199 264l-21 0c1 4 3 12 11 12 5 0 10-3 10-12z m109 11c0 0-11 2-11-16 0-17 11-16 11-16 11 0 12 11 12 16 0 18-11 16-12 16z m-194-19c-2-1-3-3-3-5 0-4 2-5 3-6 4-3 12-2 17-1l0 14c-5 1-14 1-17-2z m398 19c0-70-64-123-132-109-15-26-57-57-106-33-33-77-142-74-171 4-96-19-143 111-60 159-28 64 18 139 91 139 31 0 60-14 79-39 17 17 40 28 65 28 34 0 63-19 79-47 74 33 155-22 155-102z m-416-25c0 9-9 12-14 13-4 2-11 3-11 8 0 7 14 5 20 1 0 0 1 0 2 1 0 0 2 5 2 6 0 0 0 1-1 1-10 6-32 6-32-10 0-10 9-13 14-14 4-1 11-3 11-7 0-3-3-6-8-6-5 0-11 2-15 5 0 0-1 1-1 0l-2-6c-1-1 0-1 0-1 1-2 8-6 18-6 11 0 17 6 17 15z m26 34c-8 0-15-3-17-4 0 0 0-1 0-1-1 0 0 0 0 0l2-6c0-1 0-1 1-1 0 0 5 4 13 4 3 0 6-1 8-2 2-3 2-7 2-9-4 0-15 3-24-3-3-2-6-7-5-11 0-5 1-9 5-12 10-6 29-2 30-1 2 0 3 0 3 1l0 28c0 3 0 17-18 17z m37 17c0 0 0 0 0 0 0 0 0 1-1 1l-8 0c0 0 0-1 0-1 0 0-1 0-1 0l0-64c0 0 1 0 1 0 0 0 0-1 0-1l8 0c1 0 1 1 1 1 0 0 0 0 0 0z m45-24c-2 2-6 6-14 6-3 0-12 0-17-7-5-6-5-14-5-17 0-2 0-11 6-17 2-2 7-6 18-6 8 0 13 2 15 3 0 0 0 0 0 1l-2 6c0 0-1 0-1 0-2-1-5-2-12-2-14 0-14 12-14 13l30 0c0 0 1 1 1 1-1 0 1 12-5 19z m29-42c11 0 17 6 17 15 0 9-9 12-14 14-3 1-11 2-11 7 0 3 3 5 7 5 5 0 9-1 13-4 0 0 1 0 2 1 0 0 2 5 2 6 0 0 0 1-1 1-6 4-13 4-16 4-10 0-16-6-16-14 0-10 9-13 14-14 5-2 10-3 10-7 0-3-2-6-7-6-5 0-11 2-15 5 0 0-1 1-1 0 0 0 0 0 0 0l-2-6c-1-1 0-1 0-1 1-2 8-6 18-6z m53 47c0 0-1 1-1 1l-10 0c0 0 1 7 4 10 3 3 9 1 9 1 1-1 2 0 2 0l2 6c1 1 0 1 0 2-4 1-14 2-20-4-4-4-5-11-6-15l-7 0c0 0-1-1-1-1l-1-7c0 0 0-1 1-1l7 0c-7-38-7-40-9-44-1-3-2-5-4-6 0 0-3-2-8 0 0 0-1 0-1-1 0 0-2-5-2-6-1 0 0-1 0-1 4-1 10-1 14 0 5 2 8 7 9 11 3 6 3 7 10 47l10 0c0 0 1 1 1 1z m42-13c0 1-4 14-20 14-12 0-18-8-20-14-1-3-2-11 0-19 0 0 4-15 20-15 12 0 19 8 20 15 3 8 1 16 0 19z m37 13c-4 1-14 2-18-4l0 3c0 1 0 1 0 1 0 0-1 0-1 0l-7 0c-1 0-1 0-1 0 0 0 0 0 0-1l0-44c0 0 0 0 0-1 0 0 0 0 1 0l7 0c1 0 1 0 1 0 0 1 0 1 0 1l0 22c0 3 0 9 4 12 4 4 9 3 11 3 0 0 0 0 1 1 1 2 1 4 2 6 0 0 0 1 0 1z m37-43l-2 6c0 1-1 0-1 0-3-1-8-1-9-1-3 0-13 1-13 16 0 5 1 15 13 15 3 0 6 0 9-1 0 0 1 0 1 1 1 2 1 3 2 6 0 0 0 1-1 1-9 3-17 2-22 0-1-1-13-6-13-22 0-3 0-25 23-25 5 0 9 1 13 3 0 0 0 0 0 1z m43 31c0 3-4 13-18 13-12 0-18-8-20-14-1-3-2-7-1-10 0-20 15-23 23-23 9 0 14 2 15 3 1 0 1 0 0 1l-1 6c-1 0-1 0-2 0-2-1-5-2-12-2-14 0-13 12-13 13l29 0c1 0 1 1 1 1 0 0 1 6-1 13z m-18 6c-9 0-11-8-11-12l21 0c-1 10-6 12-10 12z"/>
<glyph glyph-name="scribd" unicode="&#51;" d="M106 259c-16 19-24 46-24 80 0 101 75 153 167 153 98 2 157-49 184-70l-50-72-38 24 27 39c-36 24-79 36-123 36-51 0-112-28-112-77 0-18 12-20 29-15 23 5 42-1 56-14 26-25 23-68-1-92-29-30-85-27-115 8z m318-6c-15 19-39 30-63 29-38 2-71-28-71-67 0-17 6-33 19-45 14-13 33-19 56-14 17 5 29 3 29-16 0-4-1-8-2-12-16-41-59-65-121-65-52 0-103 17-144 48l33 39-35 27-61-71 15-14c53-47 121-73 191-72 52 0 95 10 134 44 57 51 54 149 20 189z"/>
<glyph glyph-name="skype" unicode="&#52;" d="M457 212c3 14 4 29 4 44 0 113-91 205-205 205-15 0-30-1-44-4-19 14-42 23-68 23-62 0-112-50-112-112 0-26 9-49 23-68-3-14-4-29-4-44 0-114 92-205 205-205 15 0 30 1 44 4 19-14 42-23 68-23 62 0 112 50 112 112 0 26-9 49-23 68z m-195-91c-65 0-120 29-120 65 0 16 9 30 29 30 31 0 34-45 88-45 26 0 43 12 43 27 0 18-16 21-42 28-63 15-118 22-118 87 0 59 58 81 109 81 55 0 111-22 111-55 0-17-12-32-31-32-28 0-29 33-75 33-25 0-42-7-42-22 0-20 21-22 69-33 42-10 91-27 91-78 0-59-57-86-112-86z"/>
<glyph glyph-name="slack" unicode="&#53;" d="M126 197c0-26-21-47-47-47-26 0-47 21-47 47 0 26 21 47 47 47l47 0z m24 0c0 26 21 47 47 47 26 0 47-21 47-47l0-118c0-26-21-47-47-47-26 0-47 21-47 47z m47 189c-26 0-47 21-47 47 0 26 21 47 47 47 26 0 47-21 47-47l0-47z m0-24c26 0 47-21 47-47 0-26-21-47-47-47l-118 0c-26 0-47 21-47 47 0 26 21 47 47 47z m189-47c0 26 21 47 47 47 26 0 47-21 47-47 0-26-21-47-47-47l-47 0z m-24 0c0-26-21-47-47-47-26 0-47 21-47 47l0 118c0 26 21 47 47 47 26 0 47-21 47-47z m-47-189c26 0 47-21 47-47 0-26-21-47-47-47-26 0-47 21-47 47l0 47z m0 24c-26 0-47 21-47 47 0 26 21 47 47 47l118 0c26 0 47-21 47-47 0-26-21-47-47-47z"/>
<glyph glyph-name="slack-hash" unicode="&#54;" d="M478 242c-6 19-27 29-46 22l-45-15-30 90 45 15c19 7 29 27 23 46-6 19-27 29-46 23l-45-15-16 47c-6 19-27 29-46 23-19-6-29-27-23-46l16-47-94-31-16 47c-6 19-26 29-46 23-19-6-29-27-23-46l16-47-45-15c-19-6-29-27-23-46 5-14 19-24 33-25 7-1 12 2 58 17l30-90-45-15c-19-6-29-27-23-46 5-14 19-24 34-24 6-1 12 1 57 16l16-47c6-16 25-29 46-22 19 6 29 26 23 45l-16 47 94 32 16-47c6-17 24-29 46-23 19 6 29 27 23 46l-16 47 45 15c19 6 29 27 23 46z m-254-48l-30 91 93 31 31-90z"/>
<glyph glyph-name="slideshare" unicode="&#55;" d="M188 358c-34 0-62-25-62-57 0-32 28-58 62-58 34 0 61 26 61 58 0 32-27 57-61 57z m143 0c-34 0-62-25-62-57 0-32 28-58 62-58 34 0 62 26 62 58 0 32-28 57-62 57z m157-90l-6-4 0 198c0 28-21 50-46 50l-359 0c-26 0-46-22-46-50l0-198c-2 1-5 3-7 4-15 11-25-4-16-17 19-23 53-51 107-72-57-192 137-223 134-125 0 1 0 57 0 97 5-1 10-2 14-3 0-40 0-93 0-94-3-98 191-67 135 124 53 22 88 50 106 72 9 14-1 29-16 18z m-31-19c-69-37-128-31-160-30-24 1-33-9-34-25-10 8-19 16-20 18-5 5-14 8-27 7-32-1-90-7-158 28l0 193c0 35 9 45 41 45l317 0c31 0 41-13 41-45l0-191z"/>
<glyph glyph-name="snapchat" unicode="&#56;" d="M256 504c-137 0-248-111-248-248 0-137 111-248 248-248 137 0 248 111 248 248 0 137-111 248-248 248z m170-339c-4-8-19-14-45-18-2-2-3-10-5-16-1-4-3-6-8-6l0 0c-6 0-13 3-26 3-17 0-23-4-37-14-15-10-28-19-49-18-21-2-39 11-49 18-14 10-20 14-37 14-13 0-21-3-26-3-5 0-7 3-8 6-2 6-3 14-5 16-13 2-44 7-45 21 0 4 2 7 6 8 46 7 67 55 68 57 0 0 0 0 0 0 3 5 3 9 2 13-4 7-18 10-24 13-16 6-18 13-17 18 1 9 14 14 22 10 5-2 11-4 15-4 4 0 6 1 7 2-2 23-5 58 4 77 22 50 70 54 84 54 0 0 6 0 6 0 35 0 68-18 85-54 8-19 5-53 4-77 1-1 2-2 5-2 5 0 9 2 15 4 4 2 10 2 14 0 6-2 10-6 10-11 0-7-6-13-17-17-2-1-3-1-5-2-7-2-17-5-19-11-2-4-1-8 1-13 1 0 1 0 1 0 1-2 21-50 68-57 4-1 7-6 5-11z"/>
<glyph glyph-name="snapchat-ghost" unicode="&#57;" d="M511 119c-5-12-27-21-68-27-2-3-3-15-6-24-2-6-6-9-12-9l0 0c-10 0-20 5-39 5-27 0-36-7-57-21-21-16-42-29-74-27-31-3-58 16-72 27-21 15-30 21-57 21-19 0-30-5-39-5-8 0-11 5-12 9-3 9-4 21-6 24-21 3-68 11-69 32 0 6 4 10 9 11 69 12 101 83 102 86 0 0 0 0 0 1 4 7 5 13 3 18-5 12-27 17-36 20-24 10-27 20-26 28 3 13 22 20 33 15 9-4 17-6 24-6 5 0 8 1 10 2-2 36-7 87 5 116 34 76 106 82 127 82 1 0 9 0 10 0 52 0 102-27 127-82 12-29 7-80 5-116 2-1 5-2 9-2 6 0 14 2 22 6 6 3 14 3 21 0l0 0c9-3 15-10 15-18 0-10-8-18-26-25-2-1-4-1-7-2-10-3-25-8-29-18-2-5-1-11 3-18 0-1 0-1 0-1 1-3 33-74 102-86 7-1 11-8 8-16z"/>
<glyph glyph-name="snapchat-square" unicode="&#33;" d="M432 480l-352 0c-26 0-48-22-48-48l0-352c0-27 22-48 48-48l352 0c27 0 48 21 48 48l0 352c0 26-21 48-48 48z m-6-315c-4-8-19-14-45-18-2-2-3-10-5-16-1-4-3-6-8-6l0 0c-6 0-13 3-26 3-17 0-23-4-37-14-15-10-28-19-49-18-21-2-39 11-49 18-14 10-20 14-37 14-13 0-21-3-26-3-5 0-7 3-8 6-2 6-3 14-5 16-13 2-44 7-45 21 0 4 2 7 6 8 46 7 67 55 68 57 0 0 0 0 0 0 3 5 3 9 2 13-4 7-18 10-24 13-16 6-18 13-17 18 1 9 14 14 22 10 5-2 11-4 15-4 4 0 6 1 7 2-2 23-5 58 4 77 22 50 70 54 84 54 0 0 6 0 6 0 35 0 68-18 85-54 8-19 5-53 4-77 1-1 2-2 5-2 5 0 9 2 15 4 4 2 10 2 14 0 6-2 10-6 10-11 0-7-6-13-17-17-2-1-3-1-5-2-7-2-17-5-19-11-2-4-1-8 1-13 1 0 1 0 1 0 1-2 21-50 68-57 4-1 7-6 5-11z"/>
<glyph glyph-name="soundcloud" unicode="&#34;" d="M89 256l5-52-5-55c0-2-2-3-3-3-2 0-4 1-4 3l-4 55 4 52c0 2 2 3 4 3 1 0 3-1 3-3z m17 36c-2 0-4-2-4-4l-4-84 4-55c0-2 2-4 4-4 2 0 4 2 4 4l5 55-5 84c0 2-2 4-4 4z m21 20c-3 0-5-2-5-5l-3-104 3-54c0-2 2-4 5-4 2 0 4 2 4 4l4 54-4 104c0 3-2 5-4 5z m-121-78c-1 0-2-1-2-2l-4-28 4-28c0-1 1-2 2-2 1 0 2 1 2 2l4 28-4 28c0 1-1 2-2 2z m19 18c-1 0-2-1-2-2l-5-46 5-45c0-1 1-2 2-2 1 0 2 1 2 2l6 45-6 46c0 1-1 2-2 2z m20 9c-1 0-3-1-3-3l-4-54 4-53c0-1 2-2 3-2 1 0 2 1 2 2l6 53-6 54c0 2-1 3-2 3z m20 2c-1 0-3-1-3-3l-4-56 4-54c0-2 2-3 3-3 2 0 3 1 3 3l5 54-5 56c0 2-1 3-3 3z m193 88c-1 1-2 1-3 1-2 0-3 0-5-1-1-1-2-3-2-5l0-1-3-141 1-26 2-26c0-4 3-7 7-7 4 0 7 3 7 7l3 52-3 142c0 2-2 4-4 5z m-21-12c-1 1-2 1-4 1-1 0-2 0-3-1-2-1-3-3-3-5l0-2-3-128c0 0 0 0 3-53l0 0c0-1 0-3 1-4 2-1 3-2 5-2 2 0 4 1 5 2 1 1 2 2 2 4l0 6 3 47-3 130c0 2-1 4-3 5z m-89-18c-3 0-5-2-5-5l-3-112 3-54c0-3 2-5 5-5 2 0 4 2 5 5l4 54-4 112c-1 3-3 5-5 5z m301-50c-9 0-17-2-24-5-5 57-53 101-111 101-14 0-28-3-40-7-5-2-6-4-6-8l0-200c0-4 3-6 6-7l175 0c35 0 63 28 63 63 0 35-28 63-63 63z m-237 48c-4 0-6-3-6-6l-3-109 3-53c0-3 2-6 6-6 3 0 6 3 6 6l3 53-3 109c0 3-3 6-6 6z m-43 6c-3 0-5-2-5-5l-3-116 3-54c0-3 2-5 5-5 3 0 5 2 5 5l4 54-4 116c0 3-2 5-5 5z m21-2c-3 0-5-3-5-6l-3-113 3-53c0-3 2-6 5-6 3 0 6 3 6 6l3 53-3 113c0 3-3 6-6 6z"/>
<glyph glyph-name="spotify" unicode="&#35;" d="M256 504c-137 0-248-111-248-248 0-137 111-248 248-248 137 0 248 111 248 248 0 137-111 248-248 248z m101-365c-4 0-7 1-11 4-62 37-135 39-207 24-4-1-9-2-12-2-9 0-15 7-15 15 0 11 6 16 13 17 82 18 166 17 237-26 6-4 10-7 10-17 0-9-7-15-15-15z m27 66c-6 0-9 2-13 4-62 37-155 52-238 29-5-1-8-2-12-2-11 0-20 8-20 19 0 11 6 18 16 21 28 8 56 13 98 13 65 0 127-16 177-45 8-5 11-11 11-20 0-11-8-19-19-19z m31 76c-6 0-9 1-13 4-71 42-199 52-281 29-4-1-8-2-13-2-13 0-23 10-23 23 0 14 8 22 17 24 35 11 75 16 118 16 73 0 149-16 205-48 8-5 13-11 13-23 0-13-11-23-23-23z"/>
<glyph glyph-name="vimeo" unicode="&#36;" d="M435 480l-358 0c-25 0-45-20-45-45l0-358c0-25 20-45 45-45l358 0c25 0 45 20 45 45l0 358c0 25-20 45-45 45z m-26-149c-1-31-23-75-66-129-44-57-81-86-112-86-19 0-34 17-48 52-25 94-36 148-57 148-2 0-11-5-25-15l-16 20c38 32 73 69 96 71 25 2 40-15 46-52 21-131 30-151 68-91 13 21 21 37 22 48 3 34-26 31-46 23 16 52 46 77 91 76 33-1 49-23 47-65z"/>
<glyph glyph-name="viber" unicode="&#37;" d="M444 462c-13 12-64 49-179 50 0 0-135 8-201-53-36-36-49-90-50-157-2-66-4-191 117-224l0 0 0-52c0 0-1-21 13-25 16-5 26 11 42 28 9 9 21 23 30 33 82-7 145 9 152 12 17 5 111 17 126 142 16 128-8 209-50 246z m14-237c-13-104-89-111-103-115-6-2-62-16-131-11 0 0-52-63-68-79-6-6-12-5-11 5 0 7 0 86 0 86 0 0 0 0 0 0-102 28-96 134-95 190 1 55 12 101 43 131 56 51 170 43 170 43 97 0 144-29 154-39 36-31 54-104 41-211z m-139 81c0-9-13-9-13-1-1 22-11 33-33 34-8 1-7 13 1 13 28-2 44-18 45-46z m20-12c1 43-25 76-76 80-8 0-7 13 1 13 58-5 89-44 88-93 0-8-13-8-13 0z m47-13c0-9-13-9-13 0 0 81-55 126-120 126-9 0-9 13 0 13 73 0 133-51 133-139z m-11-98l0 0c-11-19-31-40-52-34l0 1c-21 6-71 31-102 56-16 13-31 28-43 43-10 13-20 28-30 46-22 39-26 56-26 56-7 21 14 41 33 52l0 0c9 5 18 3 24-4 0 0 12-15 18-22 5-7 11-18 15-24 6-11 2-22-4-27l-12-9c-6-5-5-14-5-14 0 0 18-68 84-85 0 0 9 0 14 6l10 12c4 6 15 10 26 3 15-8 34-21 46-32 7-6 9-15 4-24z"/>
<glyph glyph-name="twitter-square" unicode="&#38;" d="M432 480l-352 0c-26 0-48-22-48-48l0-352c0-27 22-48 48-48l352 0c27 0 48 21 48 48l0 352c0 26-21 48-48 48z m-49-159c0-3 0-6 0-8 0-87-66-187-186-187-37 0-72 11-101 29 5 0 10 0 16 0 31 0 59 10 81 28-29 0-53 19-61 45 10-1 19-1 30 1-30 6-53 33-53 65l0 1c9-5 19-8 30-9-19 12-30 33-30 55 0 12 4 23 9 33 33-40 81-66 136-69-10 45 24 81 64 81 18 0 35-8 47-21 15 3 29 9 42 16-5-15-15-28-29-36 13 1 26 5 38 10-9-13-20-25-33-34z"/>
<glyph glyph-name="twitter" unicode="&#39;" d="M459 360c1-4 1-9 1-13 0-139-106-299-299-299-59 0-115 17-161 47 8-1 17-1 25-1 49 0 95 16 131 45-47 1-85 31-98 72 6 0 12-1 19-1 10 0 19 1 28 3-48 10-84 52-84 103l0 2c14-8 30-13 47-14-28 19-47 51-47 88 0 19 6 37 15 53 51-64 129-106 216-110-2 8-2 16-2 24 0 58 46 105 104 105 31 0 58-13 77-33 24 4 47 13 67 25-8-24-25-45-46-58 21 3 41 8 60 17-14-21-32-40-53-55z"/>
<glyph glyph-name="tumblr-square" unicode="&#40;" d="M432 480l-352 0c-26 0-48-22-48-48l0-352c0-27 22-48 48-48l352 0c27 0 48 21 48 48l0 352c0 26-21 48-48 48z m-82-364c-9-9-31-20-61-20-76 0-92 55-92 88l0 90-30 0c-3 0-6 3-6 6l0 43c0 4 3 8 7 10 39 13 51 47 53 73 0 7 4 10 10 10l44 0c4 0 6-3 6-6l0-72 52 0c4 0 6-3 6-6l0-52c0-3-2-6-6-6l-52 0 0-83c0-21 15-34 43-22 3 1 5 2 8 1 2-1 3-2 4-5l14-40c1-3 2-7 0-9z"/>
<glyph glyph-name="twitch" unicode="&#41;" d="M391 409l-38 0 0-110 38 0z m-106 0l-39 0 0-110 39 0z m-164 103l-97-91 0-330 116 0 0-91 97 91 77 0 174 165 0 256z m328-238l-77-73-77 0-68-64 0 64-87 0 0 274 309 0z"/>
<glyph glyph-name="tumblr" unicode="&#42;" d="M406 32c-14-15-50-32-98-32-120 0-147 89-147 141l0 144-47 0c-6 0-10 4-10 10l0 68c0 7 4 13 11 16 62 21 82 76 85 117 0 11 6 16 16 16l71 0c5 0 10-5 10-10l0-115 83 0c5 0 10-5 10-10l0-82c0-5-5-10-10-10l-84 0 0-133c0-34 24-54 68-36 5 2 9 3 13 2 3-1 6-3 7-8l22-64c2-5 4-10 0-14z"/>
<glyph glyph-name="trello" unicode="&#43;" d="M424 480l-336 0c-31 0-56-25-56-56 0 0 0 4 0-336 0-31 25-56 56-56l336 0c31 0 56 25 56 56l0 336c0 31-25 56-56 56z m-195-339c0-15-12-27-27-27l-83 0c-14 0-26 12-27 27l0 254c0 15 12 27 27 27l83 0c15 0 27-12 27-27l0-254z m193 112c0-15-12-27-27-27l-81 0c-15 0-27 12-27 27l0 142c0 15 12 27 27 27l81 0c15 0 27-12 27-27z"/>
<glyph glyph-name="tiktok" unicode="&#44;" d="M480 302c-44 0-87 14-123 39l0-178c0-68-42-129-105-153-64-23-135-5-180 46-44 51-53 124-20 184 32 60 98 93 165 84l0-90c-31 9-64-2-83-28-19-26-19-62 0-88 20-26 53-36 84-26 30 10 51 38 51 71l0 349 88 0c0-7 1-15 2-22 6-33 26-62 54-80 20-14 43-21 67-21z"/>
<glyph glyph-name="steam-square" unicode="&#45;" d="M217 155c8 19-1 40-19 48l-30 12c12 4 24 5 37 0 12-6 21-15 26-27 5-12 5-26 0-38-10-25-39-37-64-26-12 4-21 13-26 24l29-12c18-8 40 1 47 19z m215 325l-352 0c-26 0-48-22-48-48l0-161 117-48c12 8 26 12 40 11l56 81 0 1c0 48 39 87 87 87 49 0 88-39 88-87 0-49-41-89-90-88l-79-56c2-39-29-69-65-69-32 0-59 23-65 53l-89 37 0-113c0-27 22-48 48-48l352 0c27 0 48 21 48 48l0 352c0 26-21 48-48 48z m-100-223c-32 0-58 27-58 59 0 32 26 58 58 58 33 0 59-26 59-58 0-32-26-59-59-59z m0 15c25 0 44 20 44 44 0 24-19 44-44 44-24 0-43-20-43-44 0-24 19-44 43-44z"/>
<glyph glyph-name="steam" unicode="&#46;" d="M504 256c0-137-111-248-248-248-114 0-210 76-239 180l95-39c6-32 35-56 69-56 39 0 72 32 70 73l84 60c53-1 96 41 96 94 0 51-42 93-93 93-52 0-94-42-94-93l0-1-59-86c-16 1-31-3-44-12l-133 55c10 128 117 228 248 228 137 0 248-111 248-248z m-340-128l-31 12c6-11 15-21 27-26 27-11 58 2 69 29 6 13 6 27 1 40-6 13-16 23-29 29-13 5-27 5-39 0l32-13c19-8 29-31 21-50-9-20-31-30-51-21z m174 130c-35 0-63 28-63 62 0 34 28 62 63 62 34 0 62-28 62-62 0-34-28-62-62-62z m0 15c26 0 47 21 47 47 0 26-21 47-47 47-26 0-47-21-47-47 0-26 21-47 47-47z"/>
<glyph glyph-name="stackpath" unicode="&#47;" d="M277 280c0-9-5-21-22-21l-19 0 0 42 19 0c17 0 22-13 22-21z m203 200l0-448-448 0 0 448z m-297-256c0 21-12 35-46 45-21 7-26 11-26 19 0 7 7 14 20 14 14 0 21-8 21-18l30 0 1 0c0 20-15 42-51 42-24 0-53-11-53-38 0-20 9-31 51-45 17-6 22-10 22-19 0-15-19-14-20-14-20 0-25 9-25 22l-31 0 0-1c-1-31 28-45 56-45 30 0 51 13 51 38z m126 56c0 25-19 45-54 45l-52 0 0-138 33 0 0 47 19 0c31 0 54 16 54 46z m21-93l49 138-31 0-48-138z m106 138l-31 0-48-138 30 0z"/>
<glyph glyph-name="stack-overflow" unicode="&#58;" d="M355 201l-196 41-8-39 196-41z m51 87l-154 128-25-31 153-128z m-31-40l-182 85-16-37 181-84z m-49 232l-32-24 119-160 32 24z m21-328l-200 0 0-40 200 0z m39-80l-279 0 0 120-40 0 0-160 359 0 0 160-40 0z"/>
<glyph glyph-name="vimeo-square" unicode="&#59;" d="M432 480l-352 0c-26 0-48-22-48-48l0-352c0-27 22-48 48-48l352 0c27 0 48 21 48 48l0 352c0 26-21 48-48 48z m-16-150c-2-31-23-73-65-128-44-56-81-84-111-84-19 0-34 17-47 51-25 93-36 147-57 147-2 0-11-5-25-15l-15 19c37 32 72 68 94 70 25 3 40-14 46-51 21-129 30-149 67-90 13 21 21 37 21 48 4 33-25 31-45 22 16 52 46 77 90 75 33-1 49-22 47-64z"/>
<glyph glyph-name="vimeo-v" unicode="&#60;" d="M480 358c-2-43-33-103-92-179-60-79-112-119-154-119-26 0-48 25-66 73-36 129-51 205-80 205-3 0-15-7-35-21l-21 27c52 45 101 95 132 98 35 4 56-20 64-71 29-182 42-209 94-127 19 30 29 52 30 68 5 46-36 42-63 31 22 72 64 107 126 105 46-1 67-31 65-90z"/>
<glyph glyph-name="vine" unicode="&#61;" d="M448 257l0-52c-18-4-37-6-52-6-37-77-103-144-125-156-14-8-27-9-43 1-27 16-130 100-164 365l75 0c18-159 64-240 114-302 28 28 55 66 76 107-50 26-80 81-80 146 0 66 38 115 102 115 115 0 106-128 82-181 0 0-47-10-64 20 4 11 8 31 8 49 0 31-11 46-28 46-18 0-31-17-31-50 0-79 60-119 130-102z"/>
<glyph glyph-name="vk" unicode="&#62;" d="M484 379c4 11 0 19-15 19l-53 0c-13 0-19-7-22-15 0 0-27-65-65-107-12-12-18-16-24-16-4 0-9 4-9 15l0 104c0 13-3 19-14 19l-83 0c-8 0-13-6-13-12 0-12 19-15 21-51l0-77c0-17-3-20-10-20-18 0-61 65-87 140-5 14-10 20-23 20l-53 0c-14 0-17-7-17-15 0-13 17-82 82-173 44-63 105-96 160-96 33 0 37 7 37 20 0 60-3 65 14 65 8 0 21-4 52-34 36-35 42-51 62-51l52 0c15 0 22 7 18 22-10 31-77 95-80 99-8 10-6 15 0 23 0 0 64 90 70 121z"/>
<glyph glyph-name="weebly" unicode="&#63;" d="M425 446c-40 0-73-26-84-64-18 58-65 64-85 64-19 0-66-6-85-64-10 38-43 64-83 64-49 0-88-34-88-77 0-29 4-33 77-234 23-60 68-69 93-69 39 0 70 20 86 54 16-35 47-54 86-54 25 0 70 9 93 69 76 209 77 206 77 228 1 48-36 83-87 83z m26-115l-65-176c-8-22-21-37-46-37-24 0-38 12-44 34l-40 117-1 0-39-117c-7-22-21-34-44-34-25 0-38 16-46 37l-65 175c-5 15-8 24-8 35 0 16 16 29 38 29 19 0 32-11 36-29l44-140 1 0 45 137c6 20 17 32 39 32 22 0 33-12 39-32l45-137 1 0 44 140c4 18 17 29 36 29 22 0 38-13 38-35 0-8-4-16-8-28z"/>
<glyph glyph-name="whatsapp" unicode="&#64;" d="M413 415c-42 42-98 65-157 65-122 0-222-100-222-222 0-39 10-77 30-111l-32-115 118 31c32-18 69-27 106-27l0 0c122 0 224 99 224 222 0 59-25 115-67 157z m-157-342c-33 0-66 9-94 26l-7 4-70-18 19 68-4 7c-19 29-29 63-29 98 0 102 83 184 185 184 49 0 96-19 130-54 35-35 57-81 57-130 0-102-85-185-187-185z m101 138c-5 3-33 17-38 18-5 2-9 3-12-2-4-6-15-18-18-22-3-4-6-4-12-2-32 17-54 30-75 66-6 10 5 10 16 31 2 3 1 7-1 9-1 3-12 31-17 42-4 10-9 9-12 9-3 0-7 0-11 0-3 0-9-1-15-7-5-5-19-19-19-46 0-27 20-54 23-57 2-4 39-60 94-84 36-15 49-17 67-14 11 2 33 13 37 26 5 13 5 25 4 27-2 2-5 4-11 6z"/>
<glyph glyph-name="whatsapp-square" unicode="&#91;" d="M256 389c-73 0-132-59-132-132 0-25 7-49 20-70l3-5-13-48 50 13 5-3c20-12 43-19 67-19l0 0c73 0 133 60 133 132 0 35-15 69-40 93-25 25-58 39-93 39z m78-188c-4-10-20-18-27-19-13-2-23-1-48 10-39 17-65 57-67 60-2 2-17 21-17 41 0 19 11 29 14 33 4 4 8 5 11 5 3 0 5 0 8 0 2 0 5 1 8-7 4-8 12-28 13-30 1-2 1-4 0-6-8-16-16-15-12-22 16-26 31-35 54-47 4-2 7-2 9 1 2 2 10 11 12 15 3 4 6 4 9 2 4-1 23-11 27-13 4-2 7-3 8-4 1-2 1-10-2-19z m98 279l-352 0c-26 0-48-22-48-48l0-352c0-27 22-48 48-48l352 0c27 0 48 21 48 48l0 352c0 26-21 48-48 48z m-176-381c-27 0-53 6-76 19l-84-22 23 82c-14 24-22 51-22 79 0 88 72 159 159 159 42 0 82-17 112-47 30-30 48-69 48-112 0-87-73-158-160-158z"/>
<glyph glyph-name="wikipedia-w" unicode="&#93;" d="M512 420l0-10c-23-1-36-13-45-32-20-46-83-192-124-287l-11 0-66 154c-26-50-54-104-79-154 0 0-12 0-12 0-37 88-77 175-114 263-9 21-40 56-61 56 0 2 0 8 0 11l129 0 0-11c-15-1-42-11-34-27 17-40 83-193 100-231 12 24 47 87 61 114-12 23-47 107-59 128-7 14-29 16-44 16l0 11 114 0 0-11c-16 0-31-6-24-21 15-32 25-54 39-83 4 8 27 55 38 80 7 17-3 23-31 24 0 3 0 8 0 11 36 0 89 0 99 0l0-11c-18 0-37-10-47-25l-47-98c5-13 51-115 55-126l98 226c-7 19-29 23-37 23l0 11 102-1z"/>
<glyph glyph-name="wix" unicode="&#94;" d="M315 355c0-10 1-26-23-35-8-2-13-7-13-7 0 24 4 33 14 39 8 4 22 3 22 3z m-93-28l-27-106-23 87c-6 25-17 39-39 39-22 0-32-13-39-39l-22-87-28 106c-4 21-25 31-44 28l52-198c0 0 18-1 26 3 12 6 17 10 24 37 6 24 23 95 25 100 4 12 9 11 12 0 2-5 19-76 25-100 7-27 13-31 24-37 9-4 26-3 26-3l52 198c-19 3-40-7-44-28z m93-4c0 0-4-5-11-9-5-3-10-5-14-7-13-6-11-11-11-28l0-122c0 0 13-2 22 3 11 5 14 11 14 35l0 121 0 0z m130-67l67 99c0 0-28 4-42-8-11-10-20-24-43-58-1-1-5-9-11 0-23 34-32 48-43 58-14 12-42 8-42 8l66-99-66-99c0 0 29-4 43 9 9 8 14 16 42 56 6 9 10 1 11 0 23-33 31-46 42-56 14-13 43-9 43-9z"/>
<glyph glyph-name="wordpress-simple" unicode="&#95;" d="M256 504c-137 0-248-111-248-248 0-137 111-248 248-248 137 0 248 111 248 248 0 137-111 248-248 248z m-223-248c0 32 7 63 19 91l107-292c-75 36-126 113-126 201z m223-223c-22 0-43 3-63 9l67 194 68-187c1-1 1-2 2-3-23-9-48-13-74-13z m31 327c13 1 25 3 25 3 12 1 11 19-1 18 0 0-36-3-60-3-21 0-58 3-58 3-12 1-14-18-2-18 0 0 12-2 24-3l34-95-48-146-82 241c14 1 26 3 26 3 12 1 11 19-1 18 0 0-37-3-60-3-4 0-9 0-14 0 40 61 108 101 186 101 58 0 111-22 151-59-1 1-2 1-3 1-22 0-38-19-38-40 0-18 11-34 22-52 9-15 19-34 19-62 0-19-8-41-17-72l-23-74z m81-297l68 197c13 32 17 57 17 80 0 8 0 16-1 23 17-32 27-68 27-107 0-82-45-154-111-193z"/>
<glyph glyph-name="wordpress" unicode="&#96;" d="M62 343l101-278c-71 34-120 107-120 191 0 31 7 60 19 87z m338-76c0 26-10 44-18 58-11 18-21 33-21 50 0 20 15 38 36 38 1 0 2 0 3 0-38 35-89 56-144 56-74 0-140-38-178-96 5 0 10 0 14 0 22 0 57 2 57 2 11 1 12-16 1-17 0 0-11-2-24-2l77-231 47 140-33 91c-12 0-23 2-23 2-11 0-10 18 2 17 0 0 35-2 56-2 22 0 56 2 56 2 12 1 13-16 2-17 0 0-12-2-24-2l76-229 22 71c9 29 16 50 16 69z m-140-30l-64-185c19-6 39-9 60-9 25 0 49 4 71 12-1 1-1 2-2 3z m183 121c1-7 1-14 1-22 0-21-4-46-16-76l-65-188c63 37 106 105 106 184 0 37-10 72-26 102z m61-102c0-137-111-248-248-248-137 0-248 111-248 248 0 137 111 248 248 248 137 0 248-111 248-248z m-11 0c0 130-107 237-237 237-130 0-237-107-237-237 0-131 107-237 237-237 131 0 237 106 237 237z"/>
<glyph glyph-name="wpressr" unicode="&#123;" d="M256 504c-137 0-248-111-248-248 0-137 111-248 248-248 137 0 248 111 248 248 0 137-111 248-248 248z m171-159c-15-34-30-69-45-103-3-6-7-8-13-8-23 0-46 0-69 0-5 0-9-2-11-7-10-24-20-47-31-71-1-3-4-5-8-5-45 0-91 0-137 0-3 0-6 1-8 4-11 12-23 24-34 37-2 3-3 6-1 9 9 20 17 39 26 59 13 29 26 59 39 88 1 4 4 6 8 6 14 0 29 0 43 0 6 0 9-5 7-11-14-31-28-61-41-92-6-13-12-26-17-39-4-9 7-12 11-6 0 1-2-4 30 68 1 3 3 4 7 4 15 0 30 0 45 0 6 0 8-3 6-9-9-19-17-37-25-56-5-12 8-13 11-6 0 0 28 64 32 73 2 5 6 7 11 7 26 0 53 0 79 0 12 0 14 13 4 13-25 0-51 0-76 0-6 0-8 3-5 9 6 13 11 26 17 39 2 4 5 6 9 6 23 0 26 0 131 0 6 0 8-3 5-9z"/>
<glyph glyph-name="xbox" unicode="&#124;" d="M370 194c44-55 65-99 54-119-8-15-56-45-92-56-30-9-69-13-101-10-38 4-77 17-110 39-28 18-34 26-34 41 0 29 33 82 89 142 32 34 77 73 82 72 9-2 84-75 112-109z m-181 174c-30 27-58 54-87 64-15 5-16 4-28-9-30-30-54-79-61-122-5-34-6-44-4-60 6-51 17-86 41-121 9-15 12-18 9-10-4 11 0 37 9 64 15 39 54 113 121 194z m311-63c-17 80-67 130-74 130-8 0-25-7-36-14-24-14-41-31-65-53 43-53 103-139 123-202 7-21 10-41 8-52-2-9-2-9 1-5 6 8 20 31 25 44 8 16 15 40 19 58 4 23 4 71-1 94z m-359 164c48 2 110-35 115-35 0-1 10 4 21 9 64 31 94 26 108 25-64 40-153 51-234 12-24-11-24-12-10-11z"/>
<glyph glyph-name="youtube-square" unicode="&#125;" d="M219 310l95-54-95-54z m261 122l0-352c0-27-21-48-48-48l-352 0c-26 0-48 21-48 48l0 352c0 26 22 48 48 48l352 0c27 0 48-22 48-48z m-42-176c0 0 0 59-8 88-4 16-16 28-32 32-28 8-142 8-142 8 0 0-114 0-142-8-16-4-28-16-32-32-8-29-8-88-8-88 0 0 0-60 8-89 4-15 16-27 32-31 28-8 142-8 142-8 0 0 114 0 142 8 16 4 28 16 32 32 8 28 8 88 8 88z"/>
<glyph glyph-name="youtube" unicode="&#126;" d="M489 373c-6 21-22 38-43 43-38 11-190 11-190 11 0 0-152 0-190-11-21-5-37-22-43-43-10-38-10-117-10-117 0 0 0-80 10-118 6-21 22-37 43-42 38-11 190-11 190-11 0 0 152 0 190 11 21 5 37 21 43 42 10 38 10 118 10 118 0 0 0 79-10 117z m-283-190l0 145 127-72z"/>
<glyph glyph-name="yelp" unicode="&#92;" d="M107 272l100-49c19-9 16-37-5-43l-107-26c-7-2-14-1-19 3-5 4-9 10-10 16-3 29 0 58 9 85 2 7 7 12 13 14 6 3 13 3 19 0z m44-240c24-16 51-27 79-32 7-1 13 1 19 5 5 4 8 10 8 17l4 111c1 21-26 32-40 16l-74-82c-5-5-7-12-6-18 1-7 4-13 10-17z m145 110l59-94c4-5 9-9 16-10 6-1 13 1 18 5 22 18 40 41 53 67 3 6 3 13 0 19-3 6-8 11-14 13l-105 34c-21 7-38-16-27-34z m149 133c-12 26-29 50-51 69-5 4-11 6-18 5-6 0-12-4-16-10l-62-91c-12-18 5-41 25-35l107 30c6 2 12 7 14 13 3 6 3 13 1 19z m-319 207c-6-3-10-8-12-14-2-6-1-13 2-18l104-181c12-20 43-12 43 12l0 208c0 6-3 13-7 17-5 4-11 6-18 6-39-3-77-13-112-30z"/>
<glyph glyph-name="yandex" unicode="&#57344;" d="M281 196l-87-196-64 0 96 210c-45 23-75 64-75 141 0 107 68 161 149 161l82 0 0-512-55 0 0 196z m46 269l-29 0c-45 0-88-29-88-114 0-82 40-109 88-109l29 0z"/>
<glyph glyph-name="xing-square" unicode="&#57345;" d="M432 480l-352 0c-26 0-48-22-48-48l0-352c0-27 22-48 48-48l352 0c27 0 48 21 48 48l0 352c0 26-21 48-48 48z m-260-288l-46 0c-6 0-9 5-6 10l49 87c0 0 0 0 0 0l-31 54c-3 6 0 10 6 10l46 0c6 0 10-3 13-9l32-55c-1-2-18-32-50-88-3-6-8-9-13-9z m220 214l-103-181 0 0 66-119c3-5 0-10-6-10l-47 0c-5 0-9 3-13 9l-66 120c3 4 37 65 104 182 3 6 7 9 12 9l47 0c6 0 9-5 6-10z"/>
<glyph glyph-name="xing" unicode="&#57346;" d="M227 302c-2-3-25-44-70-124-5-8-11-12-18-12l-65 0c-8 0-12 7-9 14l69 122c1 0 1 0 0 0l-44 76c-4 7 1 14 9 14l65 0c7 0 13-4 18-13z m220 164l-144-253 0 0 91-167c4-7 0-14-8-14l-65 0c-8 0-14 4-18 12l-93 169c3 5 52 90 145 255 5 8 10 12 17 12l66 0c8 0 12-7 9-14z"/>
</font>
</defs>
</svg>
